HIERARCHY
ROOT Hips
{
	OFFSET 0.000000 0.000000 0.000000
	CHANNELS 6 Xposition Yposition Zposition Zrotation Yrotation Xrotation 
	JOINT LHipJoint
	{
		OFFSET 0.000000 0.000000 0.000000
		CHANNELS 3 Zrotation Yrotation Xrotation
		JOINT LeftUpLeg
		{
			OFFSET 1.363060 -1.794630 0.839290
			CHANNELS 3 Zrotation Yrotation Xrotation
			JOINT LeftLeg
			{
				OFFSET 2.448110 -6.726130 0.000000
				CHANNELS 3 Zrotation Yrotation Xrotation
				JOINT LeftFoot
				{
					OFFSET 2.562200 -7.039590 0.000000
					CHANNELS 3 Zrotation Yrotation Xrotation
					JOINT LeftToeBase
					{
						OFFSET 0.157640 -0.433110 2.322550
						CHANNELS 3 Zrotation Yrotation Xrotation
						End Site
						{
							OFFSET 0.000000 0.000000 0.000000
						}
					}
				}
			}
		}
	}
	JOINT RHipJoint
	{
		OFFSET 0.000000 0.000000 0.000000
		CHANNELS 3 Zrotation Yrotation Xrotation
		JOINT RightUpLeg
		{
			OFFSET -1.305520 -1.794630 0.839290
			CHANNELS 3 Zrotation Yrotation Xrotation
			JOINT RightLeg
			{
				OFFSET -2.542530 -6.985550 0.000000
				CHANNELS 3 Zrotation Yrotation Xrotation
				JOINT RightFoot
				{
					OFFSET -2.568260 -7.056230 0.000000
					CHANNELS 3 Zrotation Yrotation Xrotation
					JOINT RightToeBase
					{
						OFFSET -0.164730 -0.452590 2.363150
						CHANNELS 3 Zrotation Yrotation Xrotation
						End Site
						{
							OFFSET 0.000000 0.000000 0.000000
						}
					}
				}
			}
		}
	}
	JOINT LowerBack
	{
		OFFSET 0.000000 0.000000 0.000000
		CHANNELS 3 Zrotation Yrotation Xrotation
		JOINT Spine
		{
			OFFSET 0.028270 2.035590 -0.193380
			CHANNELS 3 Zrotation Yrotation Xrotation
			JOINT Spine1
			{
				OFFSET 0.056720 2.048850 -0.042750
				CHANNELS 3 Zrotation Yrotation Xrotation
				JOINT Neck
				{
					OFFSET 0.000000 0.000000 0.000000
					CHANNELS 3 Zrotation Yrotation Xrotation
					JOINT Neck1
					{
						OFFSET -0.054170 1.746240 0.172020
						CHANNELS 3 Zrotation Yrotation Xrotation
						JOINT Head
						{
							OFFSET 0.104070 1.761360 -0.123970
							CHANNELS 3 Zrotation Yrotation Xrotation
							End Site
							{
								OFFSET 0.000000 0.000000 0.000000
							}
						}
					}
				}
				JOINT LeftShoulder
				{
					OFFSET 0.000000 0.000000 0.000000
					CHANNELS 3 Zrotation Yrotation Xrotation
					JOINT LeftArm
					{
						OFFSET 3.362410 1.200890 -0.311210
						CHANNELS 3 Zrotation Yrotation Xrotation
						JOINT LeftForeArm
						{
							OFFSET 4.983000 -0.000000 -0.000000
							CHANNELS 3 Zrotation Yrotation Xrotation
							JOINT LeftHand
							{
								OFFSET 3.483560 -0.000000 -0.000000
								CHANNELS 3 Zrotation Yrotation Xrotation
								JOINT LeftFingerBase
								{
									OFFSET 0.000000 0.000000 0.000000
									CHANNELS 3 Zrotation Yrotation Xrotation
									JOINT LeftHandIndex1
									{
										OFFSET 0.715260 -0.000000 -0.000000
										CHANNELS 3 Zrotation Yrotation Xrotation
										End Site
										{
											OFFSET 0.000000 0.000000 0.000000
										}
									}
								}
								JOINT LThumb
								{
									OFFSET 0.000000 0.000000 0.000000
									CHANNELS 3 Zrotation Yrotation Xrotation
									End Site
									{
										OFFSET 0.000000 0.000000 0.000000
									}
								}
							}
						}
					}
				}
				JOINT RightShoulder
				{
					OFFSET 0.000000 0.000000 0.000000
					CHANNELS 3 Zrotation Yrotation Xrotation
					JOINT RightArm
					{
						OFFSET -3.136600 1.374050 -0.404650
						CHANNELS 3 Zrotation Yrotation Xrotation
						JOINT RightForeArm
						{
							OFFSET -5.241900 -0.000000 -0.000000
							CHANNELS 3 Zrotation Yrotation Xrotation
							JOINT RightHand
							{
								OFFSET -3.444170 -0.000000 -0.000000
								CHANNELS 3 Zrotation Yrotation Xrotation
								JOINT RightFingerBase
								{
									OFFSET 0.000000 0.000000 0.000000
									CHANNELS 3 Zrotation Yrotation Xrotation
									JOINT RightHandIndex1
									{
										OFFSET -0.622530 -0.000000 -0.000000
										CHANNELS 3 Zrotation Yrotation Xrotation
										End Site
										{
											OFFSET 0.000000 0.000000 0.000000
										}
									}
								}
								JOINT RThumb
								{
									OFFSET 0.000000 0.000000 0.000000
									CHANNELS 3 Zrotation Yrotation Xrotation
									End Site
									{
										OFFSET 0.000000 0.000000 0.000000
									}
								}
							}
						}
					}
				}
			}
		}
	}
}
MOTION
Frames: 10
Frame Time: 0.008333
5.511753 16.370715 -2.165474 -178.830163 38.715433 -160.809639 -9.760533 -0.502660 -0.293293 -17.219083 0.109326 -49.662694 -1.826936 2.180272 40.806243 2.792320 11.791476 -14.861184 -1.220400 -0.000000 -6.844100 10.623602 -2.014060 -3.402245 -4.634027 -11.716146 -10.401425 0.247774 -3.043520 42.398108 0.043199 19.410528 25.649498 10.508200 -0.000000 -99.774700 -2.716579 0.822699 6.584974 -1.441001 0.912354 -1.257740 -5.740177 0.958888 1.114180 9.077779 4.794256 3.546406 -2.849458 -0.317159 2.634413 0.000000 0.000000 0.000000 -4.987851 -1.240339 2.133446 -47.892577 -9.735274 12.276278 -4.084915 -23.074215 -0.005444 1.910457 2.338991 0.042763 -0.159447 -0.004126 -0.000000 0.000000 0.000000 0.000000 0.000000 0.000000 0.000000 10.893190 4.853251 -0.126401 39.777224 40.851884 -13.341719 0.437974 40.751047 -0.028784 -4.485754 10.877348 -0.439802 -0.013472 -0.344358 -0.000000 0.000000 0.000000 0.000000 0.000000 0.000000 0.000000 
5.592517 16.334441 -2.267145 -179.222893 38.311753 -161.392220 -9.663497 -0.462081 -0.445039 -17.615428 -0.070087 -49.171669 -1.795795 2.256930 42.255372 2.862661 11.966118 -16.107218 -1.560500 -0.000000 -6.723101 10.811356 -1.917998 -3.515308 -5.273705 -12.087095 -10.525323 0.104088 -3.144527 44.089095 -0.145440 18.392835 27.164187 10.464300 0.000001 -97.420601 -3.237950 0.798868 6.961177 -1.553251 0.907475 -1.187584 -5.767103 0.957591 1.074938 9.042195 5.005537 3.799566 -2.867467 -0.320022 2.688543 0.000000 0.000000 0.000000 -5.191074 -1.617583 2.157800 -47.666328 -10.434357 11.965610 -4.129046 -22.169686 -0.005165 2.206921 2.203168 0.045956 -0.159072 -0.000958 -0.000000 0.000000 0.000000 0.000000 0.000000 0.000000 0.000000 10.913039 4.936709 -0.203469 40.456526 40.430119 -13.625235 0.409259 40.727349 -0.031280 -4.937807 11.264554 -0.501417 -0.011580 -0.345859 -0.000000 0.000000 0.000000 0.000000 0.000000 0.000000 0.000000 
5.669853 16.306422 -2.370695 -179.597088 37.890673 -161.960738 -9.578946 -0.426642 -0.582959 -17.981130 -0.273424 -48.506182 -1.777959 2.300231 43.390758 2.943571 12.169103 -17.384438 -1.920600 0.000000 -6.670000 10.975742 -1.815498 -3.642184 -5.863739 -12.470716 -10.636021 -0.022745 -3.240249 45.704230 -0.345052 17.086699 28.651854 10.192700 0.000000 -94.355400 -3.688885 0.783047 7.336040 -1.650713 0.907325 -1.109474 -5.790538 0.961954 1.064097 8.946203 5.199864 4.084744 -2.897342 -0.323599 2.749261 0.000000 0.000000 0.000000 -5.428266 -1.936982 2.161665 -47.575486 -11.354643 11.465857 -4.169425 -20.978359 -0.004958 2.680084 2.059413 0.051348 -0.158200 0.003573 -0.000000 0.000000 0.000000 0.000000 0.000000 0.000000 0.000000 10.913477 4.968848 -0.303800 41.224819 40.016793 -13.789486 0.384194 40.652376 -0.033801 -5.434324 11.672886 -0.571833 -0.009080 -0.346240 -0.000000 0.000000 0.000000 0.000000 0.000000 0.000000 0.000000 
5.743470 16.286575 -2.477014 -179.929214 37.457493 -162.490840 -9.511822 -0.397635 -0.700366 -18.291012 -0.501803 -47.699812 -1.769141 2.314709 44.228919 3.030715 12.394720 -18.623893 -2.284400 0.000000 -6.668499 11.111686 -1.712514 -3.775914 -6.377605 -12.844477 -10.745473 -0.131740 -3.330525 47.235123 -0.548327 15.528802 30.011126 9.675900 -0.000000 -90.696799 -4.050490 0.776183 7.689044 -1.729653 0.912949 -1.029879 -5.810687 0.972374 1.074497 8.792421 5.377081 4.401652 -2.940252 -0.327979 2.817253 0.000000 0.000000 0.000000 -5.681861 -2.238101 2.144193 -47.656573 -12.409400 10.689699 -4.199136 -19.550966 -0.004919 3.345499 1.915380 0.058734 -0.156278 0.009621 -0.000000 0.000000 0.000000 0.000000 0.000000 0.000000 0.000000 10.901218 4.954226 -0.417693 42.066945 39.602388 -13.817662 0.367198 40.524065 -0.036077 -5.938550 12.072818 -0.646348 -0.006079 -0.345235 -0.000000 0.000000 0.000000 0.000000 0.000000 0.000000 0.000000 
5.813248 16.274515 -2.586761 179.799696 37.018100 -162.960468 -9.465788 -0.376004 -0.792385 -18.525759 -0.756704 -46.791440 -1.764594 2.305644 44.798811 3.119477 12.637496 -19.765318 -2.635500 -0.000000 -6.698700 11.215768 -1.614619 -3.910572 -6.792491 -13.187947 -10.869569 -0.224890 -3.415937 48.677394 -0.747580 13.764961 31.142745 8.919600 0.000000 -86.636700 -4.309730 0.777245 8.004097 -1.788035 0.923705 -0.951050 -5.830608 0.988118 1.110834 8.587175 5.530872 4.732024 -2.996503 -0.332945 2.888030 0.000000 0.000000 0.000000 -5.949684 -2.473815 2.106315 -47.916029 -13.636562 9.649353 -4.214062 -17.896756 -0.005153 4.215700 1.761739 0.066914 -0.152975 0.017362 -0.000000 0.000000 0.000000 0.000000 0.000000 0.000000 0.000000 10.884515 4.893173 -0.542442 42.968418 39.192787 -13.700841 0.360625 40.344634 -0.037847 -6.405641 12.434882 -0.718061 -0.002888 -0.342609 -0.000000 0.000000 0.000000 0.000000 0.000000 0.000000 0.000000 
5.879325 16.269741 -2.700210 179.601281 36.577000 -163.353337 -9.442499 -0.361572 -0.855269 -18.674312 -1.038942 -45.820179 -1.760009 2.278287 45.137039 3.205153 12.890238 -20.762316 -2.959000 0.000000 -6.740399 11.287243 -1.527075 -4.040007 -7.091050 -13.484345 -11.025511 -0.306327 -3.497267 50.028927 -0.935896 11.849542 31.963329 7.954700 -0.000000 -82.440700 -4.462191 0.785190 8.266798 -1.825379 0.939102 -0.877817 -5.852085 1.008140 1.167219 8.340802 5.660072 5.065377 -3.065651 -0.338384 2.959488 0.000000 0.000000 0.000000 -6.218799 -2.657970 2.050847 -48.359491 -14.981784 8.323041 -4.207190 -16.083222 -0.005776 5.289427 1.585291 0.074388 -0.147749 0.026702 -0.000000 0.000000 0.000000 0.000000 0.000000 0.000000 0.000000 10.873441 4.793432 -0.669601 43.914529 38.776626 -13.437437 0.367789 40.123204 -0.038865 -6.790267 12.730286 -0.779170 0.000266 -0.338249 -0.000000 0.000000 0.000000 0.000000 0.000000 0.000000 0.000000 
5.942002 16.271619 -2.817342 179.480459 36.138891 -163.656974 -9.442158 -0.353933 -0.888036 -18.732571 -1.347530 -44.824519 -1.752211 2.237836 45.283602 3.283800 13.145416 -21.587091 -3.243600 0.000000 -6.776300 11.326655 -1.453036 -4.159601 -7.261389 -13.719088 -11.232859 -0.381140 -3.575351 51.291087 -1.107539 9.842207 32.409096 6.832000 0.000000 -78.331700 -4.509421 0.797029 8.469929 -1.843093 0.956662 -0.808764 -5.881068 1.030319 1.255156 8.065877 5.752651 5.369433 -3.146584 -0.343842 3.023126 0.000000 0.000000 0.000000 -6.506005 -2.690957 1.981526 -48.950317 -16.552975 6.845991 -4.177047 -14.123368 -0.006910 6.551083 1.364496 0.077955 -0.140595 0.037406 -0.000000 0.000000 0.000000 0.000000 0.000000 0.000000 0.000000 10.880032 4.652680 -0.801318 44.892147 38.369843 -13.028804 0.389273 39.869688 -0.038964 -7.048931 12.936909 -0.821775 0.003018 -0.332069 -0.000000 0.000000 0.000000 0.000000 0.000000 0.000000 0.000000 
6.001940 16.279472 -2.937587 179.431053 35.703133 -163.872765 -9.461485 -0.350624 -0.890304 -18.709136 -1.679585 -43.831556 -1.739596 2.188069 45.276159 3.352475 13.394149 -22.230334 -3.482300 0.000000 -6.794900 11.338863 -1.394816 -4.263394 -7.304645 -13.884637 -11.503735 -0.453658 -3.650515 52.462323 -1.259160 7.802383 32.448891 5.614800 0.000000 -74.641700 -4.466680 0.812543 8.605746 -1.843599 0.976650 -0.754897 -5.913554 1.053284 1.341370 7.778230 5.821767 5.660971 -3.237502 -0.349595 3.084842 0.000000 0.000000 0.000000 -6.759001 -2.750713 1.904626 -49.714526 -18.051005 5.104330 -4.112617 -12.226559 -0.008598 7.958304 1.089424 0.073914 -0.130773 0.048655 -0.000000 0.000000 0.000000 0.000000 0.000000 0.000000 0.000000 10.914799 4.495093 -0.916030 45.887419 37.921862 -12.489662 0.429855 39.604211 -0.038011 -7.147634 13.033292 -0.839175 0.005395 -0.324222 -0.000000 0.000000 0.000000 0.000000 0.000000 0.000000 0.000000 
6.059812 16.292646 -3.060351 179.444556 35.272050 -163.998666 -9.497391 -0.350147 -0.865205 -18.613973 -2.028799 -42.867588 -1.722424 2.132573 45.147844 3.409408 13.626040 -22.702188 -3.672801 0.000000 -6.790800 11.327421 -1.351680 -4.348921 -7.223898 -13.974527 -11.854159 -0.527190 -3.723263 53.548218 -1.388173 5.785227 32.062400 4.367000 0.000000 -71.429100 -4.347770 0.827760 8.677514 -1.830566 0.995342 -0.711737 -5.955362 1.074079 1.440857 7.491711 5.854306 5.904701 -3.335759 -0.355099 3.135080 0.000000 0.000000 0.000000 -7.004302 -2.712251 1.824971 -50.595861 -19.614099 3.352589 -4.020164 -10.417301 -0.010858 9.448153 0.758108 0.058669 -0.119113 0.059787 -0.000000 0.000000 0.000000 0.000000 0.000000 0.000000 0.000000 10.986369 4.317301 -1.020725 46.892750 37.452532 -11.830081 0.487989 39.341687 -0.036022 -7.061385 13.012591 -0.827271 0.007087 -0.314744 -0.000000 0.000000 0.000000 0.000000 0.000000 0.000000 0.000000 
6.116311 16.310566 -3.184827 179.506851 34.844014 -164.043004 -9.544266 -0.349826 -0.816693 -18.466439 -2.387275 -41.943818 -1.702388 2.073098 44.922295 3.454224 13.831379 -23.026757 -3.817600 0.000001 -6.763600 11.298663 -1.321717 -4.413580 -7.034646 -13.989071 -12.291158 -0.602756 -3.793656 54.549409 -1.494122 3.836373 31.256994 3.148200 0.000000 -68.797900 -4.176033 0.840952 8.689865 -1.808192 1.011270 -0.682953 -6.004517 1.090682 1.537646 7.220892 5.855371 6.102425 -3.438566 -0.360355 3.175000 0.000000 0.000000 0.000000 -7.215384 -2.643754 1.747714 -51.593554 -21.103267 1.668300 -3.902865 -8.840419 -0.013549 10.931615 0.389812 0.031123 -0.106223 0.069956 -0.000000 0.000000 0.000000 0.000000 0.000000 0.000000 0.000000 11.101326 4.132851 -1.106604 47.898641 36.938148 -11.068246 0.564466 39.100485 -0.033072 -6.779296 12.872301 -0.785162 0.008070 -0.303839 -0.000000 0.000000 0.000000 0.000000 0.000000 0.000000 0.000000 
